<?xml version="1.0" standalone="no"?>
<!DOCTYPE svg PUBLIC "-//W3C//DTD SVG 20010904//EN"
 "http://www.w3.org/TR/2001/REC-SVG-20010904/DTD/svg10.dtd">
<svg version="1.0" xmlns="http://www.w3.org/2000/svg"
 width="300.000000pt" height="300.000000pt" viewBox="0 0 300.000000 300.000000"
 preserveAspectRatio="xMidYMid meet">
<metadata>
Created by potrace 1.14, written by Peter Selinger 2001-2017
</metadata>
<g transform="translate(0.000000,300.000000) scale(0.100000,-0.100000)"
fill="#000000" stroke="none">
<path d="M385 2986 c-145 -36 -276 -144 -338 -277 -48 -104 -47 -84 -46 -1214
1 -1150 -1 -1105 56 -1225 33 -69 140 -175 215 -214 112 -57 82 -56 1228 -56
934 0 1062 2 1120 16 160 39 291 159 352 320 l23 59 2 1080 c3 1174 5 1137
-53 1251 -32 64 -118 159 -181 199 -23 15 -74 37 -115 50 l-73 24 -1070 0
c-817 -1 -1082 -4 -1120 -13z"/>
</g>
</svg>
